# xmcd
#
# Track frame offsets:
# 150
# 1100
# 23165
# 36895
# 54397
# 81620
# 99697
# 126804
# 146485
# 161097
# 178895
# 193880
# 212380
# 249007
#
# Disc length: 3330 seconds
#
#
# Revision: 0
# Processed by: cddbd v1.5.2PL0 Copyright (c) Steve Scherf et al.
# Submitted via: FreeRIP 2.945 
#
DISCID=ba0d000e
DTITLE=Pat Groulx - Pat Groulx et les bas blancs
DYEAR=2006
DGENRE=Rock
TTITLE0=Prélude
TTITLE1=De bonne humeur
TTITLE2=La gang
TTITLE3=J'aimerais donc ça
TTITLE4=Mais j't'aime
TTITLE5=La petite boite en carton
TTITLE6=L'araignée
TTITLE7=L'envoyé (Le pigeon)
TTITLE8=Maryse
TTITLE9=Sylvie-Anne
TTITLE10=Pôpa
TTITLE11=Ti-Joe
TTITLE12=Les nuages
TTITLE13=Rien
EXTD=YEAR: 2006
EXTT0=
EXTT1=
EXTT2=
EXTT3=
EXTT4=
EXTT5=
EXTT6=
EXTT7=
EXTT8=
EXTT9=
EXTT10=
EXTT11=
EXTT12=
EXTT13=
PLAYORDER=
